<svg id="visual" viewBox="0 0 960 540" width="960" height="540" xmlns="http://www.w3.org/2000/svg" xmlns:xlink="http://www.w3.org/1999/xlink" version="1.1"><rect x="0" y="0" width="960" height="540" fill="#001220"></rect><g fill="none" stroke="#1ffe00" stroke-width="1"><path d="M0 -109.5L24.6 -33.8L104.1 -33.8L39.8 12.9L64.4 88.6L0 41.8L-64.4 88.6L-39.8 12.9L-104.1 -33.8L-24.6 -33.8Z" transform="translate(113 251)"></path><path d="M0 -48.1L10.8 -14.9L45.8 -14.9L17.5 5.7L28.3 38.9L0 18.4L-28.3 38.9L-17.5 5.7L-45.8 -14.9L-10.8 -14.9Z" transform="translate(568 146)"></path><path d="M0 -76.5L17.2 -23.6L72.7 -23.6L27.8 9L44.9 61.8L0 29.2L-44.9 61.8L-27.8 9L-72.7 -23.6L-17.2 -23.6Z" transform="translate(466 361)"></path><path d="M0 -105.7L23.7 -32.7L100.5 -32.7L38.4 12.5L62.1 85.5L0 40.4L-62.1 85.5L-38.4 12.5L-100.5 -32.7L-23.7 -32.7Z" transform="translate(923 74)"></path><path d="M0 -78.3L17.6 -24.2L74.5 -24.2L28.5 9.2L46 63.4L0 29.9L-46 63.4L-28.5 9.2L-74.5 -24.2L-17.6 -24.2Z" transform="translate(705 468)"></path></g></svg>