<svg id="visual" viewBox="0 0 960 200" width="960" height="200" xmlns="http://www.w3.org/2000/svg" xmlns:xlink="http://www.w3.org/1999/xlink" version="1.1"><rect x="0" y="0" width="960" height="200" fill="#040a0e"></rect><path d="M0 130L13.3 126.5C26.7 123 53.3 116 80 119C106.7 122 133.3 135 160 136C186.7 137 213.3 126 240 121.5C266.7 117 293.3 119 320 125.2C346.7 131.3 373.3 141.7 400 141.7C426.7 141.7 453.3 131.3 480 127.2C506.7 123 533.3 125 560 124.2C586.7 123.3 613.3 119.7 640 123.7C666.7 127.7 693.3 139.3 720 144.5C746.7 149.7 773.3 148.3 800 146.5C826.7 144.7 853.3 142.3 880 137C906.7 131.7 933.3 123.3 946.7 119.2L960 115L960 0L946.7 0C933.3 0 906.7 0 880 0C853.3 0 826.7 0 800 0C773.3 0 746.7 0 720 0C693.3 0 666.7 0 640 0C613.3 0 586.7 0 560 0C533.3 0 506.7 0 480 0C453.3 0 426.7 0 400 0C373.3 0 346.7 0 320 0C293.3 0 266.7 0 240 0C213.3 0 186.7 0 160 0C133.3 0 106.7 0 80 0C53.3 0 26.7 0 13.3 0L0 0Z" fill="#c27000"></path><path d="M0 79L13.3 79.7C26.7 80.3 53.3 81.7 80 86.2C106.7 90.7 133.3 98.3 160 102.5C186.7 106.7 213.3 107.3 240 106.3C266.7 105.3 293.3 102.7 320 99.3C346.7 96 373.3 92 400 94.3C426.7 96.7 453.3 105.3 480 106.3C506.7 107.3 533.3 100.7 560 100.2C586.7 99.7 613.3 105.3 640 102C666.7 98.7 693.3 86.3 720 81.3C746.7 76.3 773.3 78.7 800 79.2C826.7 79.7 853.3 78.3 880 84.7C906.7 91 933.3 105 946.7 112L960 119L960 0L946.7 0C933.3 0 906.7 0 880 0C853.3 0 826.7 0 800 0C773.3 0 746.7 0 720 0C693.3 0 666.7 0 640 0C613.3 0 586.7 0 560 0C533.3 0 506.7 0 480 0C453.3 0 426.7 0 400 0C373.3 0 346.7 0 320 0C293.3 0 266.7 0 240 0C213.3 0 186.7 0 160 0C133.3 0 106.7 0 80 0C53.3 0 26.7 0 13.3 0L0 0Z" fill="#a1314b"></path><path d="M0 50L13.3 53.7C26.7 57.3 53.3 64.7 80 64C106.7 63.3 133.3 54.7 160 53.8C186.7 53 213.3 60 240 64.3C266.7 68.7 293.3 70.3 320 69.7C346.7 69 373.3 66 400 65C426.7 64 453.3 65 480 64.2C506.7 63.3 533.3 60.7 560 61.3C586.7 62 613.3 66 640 68.8C666.7 71.7 693.3 73.3 720 73C746.7 72.7 773.3 70.3 800 68C826.7 65.7 853.3 63.3 880 63.7C906.7 64 933.3 67 946.7 68.5L960 70L960 0L946.7 0C933.3 0 906.7 0 880 0C853.3 0 826.7 0 800 0C773.3 0 746.7 0 720 0C693.3 0 666.7 0 640 0C613.3 0 586.7 0 560 0C533.3 0 506.7 0 480 0C453.3 0 426.7 0 400 0C373.3 0 346.7 0 320 0C293.3 0 266.7 0 240 0C213.3 0 186.7 0 160 0C133.3 0 106.7 0 80 0C53.3 0 26.7 0 13.3 0L0 0Z" fill="#452852"></path><path d="M0 32L13.3 31.7C26.7 31.3 53.3 30.7 80 29.7C106.7 28.7 133.3 27.3 160 29.7C186.7 32 213.3 38 240 36.8C266.7 35.7 293.3 27.3 320 24.5C346.7 21.7 373.3 24.3 400 29.8C426.7 35.3 453.3 43.7 480 46C506.7 48.3 533.3 44.7 560 40.7C586.7 36.7 613.3 32.3 640 34.2C666.7 36 693.3 44 720 44.5C746.7 45 773.3 38 800 32.7C826.7 27.3 853.3 23.7 880 23.7C906.7 23.7 933.3 27.3 946.7 29.2L960 31L960 0L946.7 0C933.3 0 906.7 0 880 0C853.3 0 826.7 0 800 0C773.3 0 746.7 0 720 0C693.3 0 666.7 0 640 0C613.3 0 586.7 0 560 0C533.3 0 506.7 0 480 0C453.3 0 426.7 0 400 0C373.3 0 346.7 0 320 0C293.3 0 266.7 0 240 0C213.3 0 186.7 0 160 0C133.3 0 106.7 0 80 0C53.3 0 26.7 0 13.3 0L0 0Z" fill="#001220"></path></svg>