<svg id="visual" viewBox="0 0 960 200" width="960" height="200" xmlns="http://www.w3.org/2000/svg" xmlns:xlink="http://www.w3.org/1999/xlink" version="1.1"><rect x="0" y="0" width="960" height="200" fill="#001220"></rect><path d="M0 131L13.3 130.7C26.7 130.3 53.3 129.7 80 133C106.7 136.3 133.3 143.7 160 143.2C186.7 142.7 213.3 134.3 240 134.8C266.7 135.3 293.3 144.7 320 148.8C346.7 153 373.3 152 400 149C426.7 146 453.3 141 480 141.2C506.7 141.3 533.3 146.7 560 146.2C586.7 145.7 613.3 139.3 640 137.8C666.7 136.3 693.3 139.7 720 136C746.7 132.3 773.3 121.7 800 120.8C826.7 120 853.3 129 880 129C906.7 129 933.3 120 946.7 115.5L960 111L960 0L946.7 0C933.3 0 906.7 0 880 0C853.3 0 826.7 0 800 0C773.3 0 746.7 0 720 0C693.3 0 666.7 0 640 0C613.3 0 586.7 0 560 0C533.3 0 506.7 0 480 0C453.3 0 426.7 0 400 0C373.3 0 346.7 0 320 0C293.3 0 266.7 0 240 0C213.3 0 186.7 0 160 0C133.3 0 106.7 0 80 0C53.3 0 26.7 0 13.3 0L0 0Z" fill="#4dd222"></path><path d="M0 104L13.3 106.8C26.7 109.7 53.3 115.3 80 115.7C106.7 116 133.3 111 160 110.7C186.7 110.3 213.3 114.7 240 111.8C266.7 109 293.3 99 320 98.5C346.7 98 373.3 107 400 109.8C426.7 112.7 453.3 109.3 480 108.7C506.7 108 533.3 110 560 111.7C586.7 113.3 613.3 114.7 640 117C666.7 119.3 693.3 122.7 720 121.5C746.7 120.3 773.3 114.7 800 108C826.7 101.3 853.3 93.7 880 95C906.7 96.3 933.3 106.7 946.7 111.8L960 117L960 0L946.7 0C933.3 0 906.7 0 880 0C853.3 0 826.7 0 800 0C773.3 0 746.7 0 720 0C693.3 0 666.7 0 640 0C613.3 0 586.7 0 560 0C533.3 0 506.7 0 480 0C453.3 0 426.7 0 400 0C373.3 0 346.7 0 320 0C293.3 0 266.7 0 240 0C213.3 0 186.7 0 160 0C133.3 0 106.7 0 80 0C53.3 0 26.7 0 13.3 0L0 0Z" fill="#00a268"></path><path d="M0 66L13.3 66.5C26.7 67 53.3 68 80 72C106.7 76 133.3 83 160 84.7C186.7 86.3 213.3 82.7 240 81.3C266.7 80 293.3 81 320 84.2C346.7 87.3 373.3 92.7 400 94.5C426.7 96.3 453.3 94.7 480 89.3C506.7 84 533.3 75 560 74.3C586.7 73.7 613.3 81.3 640 86.8C666.7 92.3 693.3 95.7 720 96.7C746.7 97.7 773.3 96.3 800 96C826.7 95.7 853.3 96.3 880 95.5C906.7 94.7 933.3 92.3 946.7 91.2L960 90L960 0L946.7 0C933.3 0 906.7 0 880 0C853.3 0 826.7 0 800 0C773.3 0 746.7 0 720 0C693.3 0 666.7 0 640 0C613.3 0 586.7 0 560 0C533.3 0 506.7 0 480 0C453.3 0 426.7 0 400 0C373.3 0 346.7 0 320 0C293.3 0 266.7 0 240 0C213.3 0 186.7 0 160 0C133.3 0 106.7 0 80 0C53.3 0 26.7 0 13.3 0L0 0Z" fill="#006d68"></path><path d="M0 65L13.3 62.3C26.7 59.7 53.3 54.3 80 53.7C106.7 53 133.3 57 160 56C186.7 55 213.3 49 240 47.2C266.7 45.3 293.3 47.7 320 49.5C346.7 51.3 373.3 52.7 400 53C426.7 53.3 453.3 52.7 480 55.2C506.7 57.7 533.3 63.3 560 62.2C586.7 61 613.3 53 640 53.5C666.7 54 693.3 63 720 66.5C746.7 70 773.3 68 800 66.2C826.7 64.3 853.3 62.7 880 62.8C906.7 63 933.3 65 946.7 66L960 67L960 0L946.7 0C933.3 0 906.7 0 880 0C853.3 0 826.7 0 800 0C773.3 0 746.7 0 720 0C693.3 0 666.7 0 640 0C613.3 0 586.7 0 560 0C533.3 0 506.7 0 480 0C453.3 0 426.7 0 400 0C373.3 0 346.7 0 320 0C293.3 0 266.7 0 240 0C213.3 0 186.7 0 160 0C133.3 0 106.7 0 80 0C53.3 0 26.7 0 13.3 0L0 0Z" fill="#0c3a42"></path><path d="M0 34L13.3 35.7C26.7 37.3 53.3 40.7 80 37.3C106.7 34 133.3 24 160 22.7C186.7 21.3 213.3 28.7 240 33C266.7 37.3 293.3 38.7 320 38C346.7 37.3 373.3 34.7 400 35.3C426.7 36 453.3 40 480 38.7C506.7 37.3 533.3 30.7 560 28.7C586.7 26.7 613.3 29.3 640 31.7C666.7 34 693.3 36 720 38C746.7 40 773.3 42 800 39.5C826.7 37 853.3 30 880 25.8C906.7 21.7 933.3 20.3 946.7 19.7L960 19L960 0L946.7 0C933.3 0 906.7 0 880 0C853.3 0 826.7 0 800 0C773.3 0 746.7 0 720 0C693.3 0 666.7 0 640 0C613.3 0 586.7 0 560 0C533.3 0 506.7 0 480 0C453.3 0 426.7 0 400 0C373.3 0 346.7 0 320 0C293.3 0 266.7 0 240 0C213.3 0 186.7 0 160 0C133.3 0 106.7 0 80 0C53.3 0 26.7 0 13.3 0L0 0Z" fill="#040a0e"></path></svg>