<svg id="visual" viewBox="0 0 1920 1080" width="1920" height="1080" xmlns="http://www.w3.org/2000/svg" xmlns:xlink="http://www.w3.org/1999/xlink" version="1.1"><rect width="1920" height="1080" fill="#040a0e"></rect><g><g transform="translate(1885 914)"><path d="M0 -208.1L180.2 -104.1L180.2 104.1L0 208.1L-180.2 104.1L-180.2 -104.1Z" fill="none" stroke="#4300b7" stroke-width="2"></path></g><g transform="translate(836 1037)"><path d="M0 -166L143.8 -83L143.8 83L0 166L-143.8 83L-143.8 -83Z" fill="none" stroke="#4300b7" stroke-width="2"></path></g><g transform="translate(162 552)"><path d="M0 -185L160.2 -92.5L160.2 92.5L0 185L-160.2 92.5L-160.2 -92.5Z" fill="none" stroke="#4300b7" stroke-width="2"></path></g><g transform="translate(1298 205)"><path d="M0 -149L129 -74.5L129 74.5L0 149L-129 74.5L-129 -74.5Z" stroke="#4300b7" fill="none" stroke-width="2"></path></g></g></svg>