<svg id="visual" viewBox="0 0 960 540" width="960" height="540" xmlns="http://www.w3.org/2000/svg" xmlns:xlink="http://www.w3.org/1999/xlink" version="1.1"><rect x="0" y="0" width="960" height="540" fill="#001220"></rect><defs><linearGradient id="grad1_0" x1="43.8%" y1="0%" x2="100%" y2="100%"><stop offset="14.444444444444446%" stop-color="#fbae3c" stop-opacity="1"></stop><stop offset="85.55555555555554%" stop-color="#fbae3c" stop-opacity="1"></stop></linearGradient></defs><defs><linearGradient id="grad1_1" x1="43.8%" y1="0%" x2="100%" y2="100%"><stop offset="14.444444444444446%" stop-color="#fbae3c" stop-opacity="1"></stop><stop offset="85.55555555555554%" stop-color="#96446e" stop-opacity="1"></stop></linearGradient></defs><defs><linearGradient id="grad1_2" x1="43.8%" y1="0%" x2="100%" y2="100%"><stop offset="14.444444444444446%" stop-color="#001220" stop-opacity="1"></stop><stop offset="85.55555555555554%" stop-color="#96446e" stop-opacity="1"></stop></linearGradient></defs><defs><linearGradient id="grad2_0" x1="0%" y1="0%" x2="56.3%" y2="100%"><stop offset="14.444444444444446%" stop-color="#fbae3c" stop-opacity="1"></stop><stop offset="85.55555555555554%" stop-color="#fbae3c" stop-opacity="1"></stop></linearGradient></defs><defs><linearGradient id="grad2_1" x1="0%" y1="0%" x2="56.3%" y2="100%"><stop offset="14.444444444444446%" stop-color="#96446e" stop-opacity="1"></stop><stop offset="85.55555555555554%" stop-color="#fbae3c" stop-opacity="1"></stop></linearGradient></defs><defs><linearGradient id="grad2_2" x1="0%" y1="0%" x2="56.3%" y2="100%"><stop offset="14.444444444444446%" stop-color="#96446e" stop-opacity="1"></stop><stop offset="85.55555555555554%" stop-color="#001220" stop-opacity="1"></stop></linearGradient></defs><g transform="translate(960, 0)"><path d="M0 405C-52.2 392.8 -104.4 380.7 -148.1 357.5C-191.8 334.4 -226.9 300.3 -266.6 266.6C-306.2 232.8 -350.4 199.4 -374.2 155C-398 110.6 -401.5 55.3 -405 0L0 0Z" fill="#3d3056"></path><path d="M0 270C-34.8 261.9 -69.6 253.8 -98.7 238.4C-127.9 222.9 -151.3 200.2 -177.7 177.7C-204.1 155.2 -233.6 132.9 -249.4 103.3C-265.3 73.7 -267.7 36.9 -270 0L0 0Z" fill="#e1685e"></path><path d="M0 135C-17.4 130.9 -34.8 126.9 -49.4 119.2C-63.9 111.5 -75.6 100.1 -88.9 88.9C-102.1 77.6 -116.8 66.5 -124.7 51.7C-132.7 36.9 -133.8 18.4 -135 0L0 0Z" fill="#fbae3c"></path></g><g transform="translate(0, 540)"><path d="M0 -405C54.7 -393 109.4 -381 145 -350.2C180.7 -319.3 197.2 -269.5 237.6 -237.6C278 -205.7 342.3 -191.6 374.2 -155C406.1 -118.4 405.5 -59.2 405 0L0 0Z" fill="#3d3056"></path><path d="M0 -270C36.5 -262 72.9 -254 96.7 -233.4C120.4 -212.8 131.5 -179.7 158.4 -158.4C185.3 -137.1 228.2 -127.7 249.4 -103.3C270.7 -78.9 270.4 -39.5 270 0L0 0Z" fill="#e1685e"></path><path d="M0 -135C18.2 -131 36.5 -127 48.3 -116.7C60.2 -106.4 65.7 -89.8 79.2 -79.2C92.7 -68.6 114.1 -63.9 124.7 -51.7C135.4 -39.5 135.2 -19.7 135 0L0 0Z" fill="#fbae3c"></path></g></svg>