<svg id="visual" viewBox="0 0 960 200" width="960" height="200" xmlns="http://www.w3.org/2000/svg" xmlns:xlink="http://www.w3.org/1999/xlink" version="1.1"><rect x="0" y="0" width="960" height="200" fill="#001220"></rect><path d="M0 145L137 143L274 131L411 148L549 136L686 119L823 128L960 147L960 201L823 201L686 201L549 201L411 201L274 201L137 201L0 201Z" fill="#715df2"></path><path d="M0 156L137 147L274 143L411 145L549 136L686 133L823 142L960 157L960 201L823 201L686 201L549 201L411 201L274 201L137 201L0 201Z" fill="#2f50b9"></path><path d="M0 149L137 152L274 148L411 149L549 161L686 158L823 148L960 156L960 201L823 201L686 201L549 201L411 201L274 201L137 201L0 201Z" fill="#003c7c"></path><path d="M0 176L137 165L274 169L411 162L549 162L686 170L823 165L960 171L960 201L823 201L686 201L549 201L411 201L274 201L137 201L0 201Z" fill="#00233f"></path><path d="M0 176L137 179L274 178L411 180L549 174L686 188L823 178L960 184L960 201L823 201L686 201L549 201L411 201L274 201L137 201L0 201Z" fill="#000102"></path></svg>