<svg xmlns="http://www.w3.org/2000/svg" version="1.1" xmlns:xlink="http://www.w3.org/1999/xlink" xmlns:svgjs="http://svgjs.com/svgjs" width="960" height="560" preserveAspectRatio="none" viewBox="0 0 960 560"><g mask="url(&quot;#SvgjsMask1058&quot;)" fill="none"><rect width="960" height="560" x="0" y="0" fill="rgba(81, 46, 95, 1)"></rect><path d="M0,436.718C83.965,441.112,168.029,416.96,238.084,370.465C307.551,324.36,375.516,260.156,389.795,178.013C403.57,98.769,325.245,34.414,310.234,-44.605C296.246,-118.24,338.614,-197.538,305.665,-264.86C269.596,-338.558,204.576,-406.097,124.517,-424.067C45.195,-441.872,-34.228,-397.313,-104.824,-356.998C-164.357,-323,-206.784,-269.31,-245.524,-212.748C-280.529,-161.639,-303.218,-105.877,-318.018,-45.724C-334.255,20.268,-351.647,87.22,-335.576,153.252C-317.575,227.212,-280.74,297.239,-222.591,346.359C-160.153,399.101,-81.621,432.447,0,436.718" fill="#351e3e"></path><path d="M960 1031.138C1045.287 1050.444 1125.667 978.294 1192.847 922.316 1254.564 870.89 1304.038 804.2860000000001 1325.239 726.799 1344.7559999999999 655.4639999999999 1312.984 583.899 1305.571 510.314 1297.749 432.668 1317.684 350.908 1280.461 282.319 1239.3690000000001 206.601 1174.088 136.558 1090.794 114.55799999999999 1008 92.69 926.007 140.43900000000002 844.668 167.21499999999997 766.06 193.091 665.029 196.829 623.4680000000001 268.393 581.298 341.006 654.428 431.23400000000004 643.027 514.426 631.749 596.72 524.056 667.774 558.3679999999999 743.419 592.649 818.996 718.835 781.957 786.298 830.2860000000001 859.742 882.899 871.884 1011.191 960 1031.138" fill="#6d3e80"></path></g><defs><mask id="SvgjsMask1058"><rect width="960" height="560" fill="#ffffff"></rect></mask></defs></svg>