<svg id="visual" viewBox="0 0 1920 1080" width="1920" height="1080" xmlns="http://www.w3.org/2000/svg" xmlns:xlink="http://www.w3.org/1999/xlink" version="1.1"><rect x="0" y="0" width="1920" height="1080" fill="#001220"></rect><path d="M0 245L45.7 252.3C91.3 259.7 182.7 274.3 274.2 294C365.7 313.7 457.3 338.3 548.8 347.8C640.3 357.3 731.7 351.7 823 315.2C914.3 278.7 1005.7 211.3 1097 200C1188.3 188.7 1279.7 233.3 1371.2 233.2C1462.7 233 1554.3 188 1645.8 195.7C1737.3 203.3 1828.7 263.7 1874.3 293.8L1920 324L1920 0L1874.3 0C1828.7 0 1737.3 0 1645.8 0C1554.3 0 1462.7 0 1371.2 0C1279.7 0 1188.3 0 1097 0C1005.7 0 914.3 0 823 0C731.7 0 640.3 0 548.8 0C457.3 0 365.7 0 274.2 0C182.7 0 91.3 0 45.7 0L0 0Z" fill="#b24411" stroke-linecap="round" stroke-linejoin="miter"></path></svg>