<svg id="visual" viewBox="0 0 960 200" width="960" height="200" xmlns="http://www.w3.org/2000/svg" xmlns:xlink="http://www.w3.org/1999/xlink" version="1.1"><rect x="0" y="0" width="960" height="200" fill="#001220"></rect><path d="M0 105L14.5 105.7C29 106.3 58 107.7 87.2 111.5C116.3 115.3 145.7 121.7 174.8 118.2C204 114.7 233 101.3 262 99C291 96.7 320 105.3 349 106.7C378 108 407 102 436.2 97.5C465.3 93 494.7 90 523.8 92.2C553 94.3 582 101.7 611 102.5C640 103.3 669 97.7 698 93C727 88.3 756 84.7 785.2 84.2C814.3 83.7 843.7 86.3 872.8 91.8C902 97.3 931 105.7 945.5 109.8L960 114L960 0L945.5 0C931 0 902 0 872.8 0C843.7 0 814.3 0 785.2 0C756 0 727 0 698 0C669 0 640 0 611 0C582 0 553 0 523.8 0C494.7 0 465.3 0 436.2 0C407 0 378 0 349 0C320 0 291 0 262 0C233 0 204 0 174.8 0C145.7 0 116.3 0 87.2 0C58 0 29 0 14.5 0L0 0Z" fill="#c1124c"></path><path d="M0 84L14.5 83.3C29 82.7 58 81.3 87.2 81.3C116.3 81.3 145.7 82.7 174.8 80.8C204 79 233 74 262 68.7C291 63.3 320 57.7 349 60.2C378 62.7 407 73.3 436.2 79C465.3 84.7 494.7 85.3 523.8 86C553 86.7 582 87.3 611 85.7C640 84 669 80 698 73.8C727 67.7 756 59.3 785.2 60.8C814.3 62.3 843.7 73.7 872.8 76.8C902 80 931 75 945.5 72.5L960 70L960 0L945.5 0C931 0 902 0 872.8 0C843.7 0 814.3 0 785.2 0C756 0 727 0 698 0C669 0 640 0 611 0C582 0 553 0 523.8 0C494.7 0 465.3 0 436.2 0C407 0 378 0 349 0C320 0 291 0 262 0C233 0 204 0 174.8 0C145.7 0 116.3 0 87.2 0C58 0 29 0 14.5 0L0 0Z" fill="#781541"></path><path d="M0 27L14.5 27.7C29 28.3 58 29.7 87.2 31.2C116.3 32.7 145.7 34.3 174.8 34.2C204 34 233 32 262 29.8C291 27.7 320 25.3 349 24.3C378 23.3 407 23.7 436.2 26.5C465.3 29.3 494.7 34.7 523.8 40.5C553 46.3 582 52.7 611 54.5C640 56.3 669 53.7 698 48C727 42.3 756 33.7 785.2 29C814.3 24.3 843.7 23.7 872.8 26.2C902 28.7 931 34.3 945.5 37.2L960 40L960 0L945.5 0C931 0 902 0 872.8 0C843.7 0 814.3 0 785.2 0C756 0 727 0 698 0C669 0 640 0 611 0C582 0 553 0 523.8 0C494.7 0 465.3 0 436.2 0C407 0 378 0 349 0C320 0 291 0 262 0C233 0 204 0 174.8 0C145.7 0 116.3 0 87.2 0C58 0 29 0 14.5 0L0 0Z" fill="#351126"></path></svg>